<?xml version="1.0" standalone="no"?>
<!DOCTYPE svg PUBLIC "-//W3C//DTD SVG 20010904//EN"
 "http://www.w3.org/TR/2001/REC-SVG-20010904/DTD/svg10.dtd">
<svg version="1.0" xmlns="http://www.w3.org/2000/svg"
 width="200.000000pt" height="200.000000pt" viewBox="0 0 200.000000 200.000000"
 preserveAspectRatio="xMidYMid meet">

<g transform="translate(0.000000,200.000000) scale(0.100000,-0.100000)"
fill="#000000" stroke="none">
<path d="M920 1847 c-3 -3 -53 -11 -110 -16 -232 -24 -541 -137 -620 -228 -28
-31 -30 -38 -24 -91 11 -117 27 -208 44 -267 10 -33 21 -75 25 -94 10 -47 79
-228 121 -319 48 -103 171 -285 240 -358 63 -65 258 -228 337 -281 27 -18 58
-33 69 -33 11 0 48 15 82 32 87 46 410 369 487 488 83 127 93 147 133 248 60
151 113 431 118 626 1 50 -2 58 -28 82 -69 62 -366 171 -531 195 -89 12 -335
24 -343 16z m-18 -124 c0 -16 1 -34 1 -40 -1 -26 15 -2 21 33 9 48 36 42 52
-11 l12 -40 1 43 c1 23 6 42 11 42 6 0 10 -6 11 -12 2 -33 9 -51 26 -63 16
-12 16 -14 2 -20 -9 -3 -32 -4 -52 -2 -19 2 -57 1 -84 -4 -39 -6 -50 -4 -60 9
-12 14 -13 14 -13 0 0 -23 -52 -31 -67 -10 -12 14 -13 14 -13 -5 0 -14 -6 -22
-17 -22 -10 0 -30 -3 -44 -6 -25 -6 -27 -4 -34 34 -4 23 -11 38 -17 35 -5 -3
-7 -23 -3 -45 6 -32 4 -39 -9 -39 -9 0 -16 8 -16 20 0 11 -9 29 -21 41 -11 11
-19 23 -16 25 3 3 40 14 83 24 73 18 78 18 90 2 13 -16 13 -16 14 1 0 30 16
19 28 -20 l11 -38 -4 37 c-4 43 12 60 32 33 12 -17 13 -17 13 -2 0 31 18 18
28 -20 l10 -38 1 43 c1 46 20 59 23 15z m272 5 c13 -18 16 -19 16 -5 0 19 15
23 25 7 5 -8 12 -7 22 1 11 10 19 10 32 2 10 -6 43 -14 75 -18 42 -6 61 -13
75 -31 13 -17 21 -20 29 -12 19 19 25 1 12 -34 -18 -46 -23 -50 -54 -42 -17 4
-25 11 -22 20 3 7 1 16 -3 19 -5 3 -11 -2 -15 -10 -10 -27 -29 -17 -21 12 11
44 11 45 -2 50 -7 3 -15 -10 -19 -31 -4 -22 -12 -36 -21 -36 -9 0 -13 7 -9 18
2 9 7 27 11 40 5 17 2 22 -12 22 -11 0 -24 5 -31 12 -8 8 -12 9 -12 1 0 -6 7
-18 15 -27 31 -31 7 -68 -32 -51 -10 5 -26 7 -35 6 -11 -1 -18 4 -18 15 0 14
-3 15 -12 6 -7 -7 -25 -12 -41 -12 -28 0 -29 2 -23 31 3 17 6 40 6 50 0 27 45
25 64 -3z m-590 -100 c18 -43 6 -60 -24 -33 -18 16 -18 16 -13 -4 7 -27 -15
-28 -25 -1 -7 19 -9 19 -27 6 -20 -15 -20 -15 3 -16 12 0 22 -4 22 -10 0 -12
-45 -24 -58 -16 -5 3 -12 -3 -15 -14 -8 -31 -44 -25 -62 10 -19 36 -19 54 -1
69 17 14 46 4 46 -16 0 -9 -6 -13 -15 -9 -19 7 -19 -14 0 -40 12 -16 14 -17
15 -2 0 9 5 18 12 20 8 3 9 12 0 35 -10 30 -9 32 19 42 16 5 29 7 29 4 0 -3 7
0 15 7 12 10 18 10 31 0 8 -8 14 -9 13 -4 -8 41 13 25 35 -28z m952 27 c4 -8
14 -15 24 -15 30 0 50 -11 50 -27 0 -9 -6 -13 -14 -10 -8 3 -19 -8 -30 -29
-21 -46 -41 -35 -21 12 14 35 13 38 -17 35 -10 -1 -18 4 -18 11 -1 8 -6 6 -15
-6 -21 -28 -19 -38 6 -31 15 5 20 3 17 -6 -6 -19 -36 -23 -53 -9 -14 12 -6 49
17 77 14 18 47 16 54 -2z m-514 -43 c-10 -3 -10 -7 -1 -18 9 -11 9 -14 0 -14
-7 0 -9 -4 -6 -10 12 -20 35 -10 35 15 0 14 7 28 15 32 20 7 22 5 31 -42 7
-37 6 -39 -10 -26 -11 9 -20 11 -24 5 -4 -6 -26 -10 -49 -10 -33 -1 -43 3 -48
20 -7 21 -7 21 -13 1 -9 -26 -82 -32 -82 -6 1 61 31 81 49 31 13 -39 19 -38
13 1 -4 31 -4 31 27 27 18 -3 34 -1 37 3 2 5 12 5 21 2 11 -5 13 -8 5 -11z
m159 2 c12 -15 11 -16 -9 -10 -20 7 -22 4 -22 -25 0 -25 3 -29 13 -20 8 6 16
8 19 5 3 -3 9 7 12 21 9 35 48 31 56 -5 l6 -25 8 25 c8 24 9 24 15 -10 l7 -35
8 28 c6 20 15 27 32 27 13 0 24 -4 24 -8 0 -5 14 -8 30 -7 34 2 70 -19 56 -32
-5 -4 -11 -2 -13 5 -8 23 -23 12 -23 -17 0 -24 3 -28 20 -24 10 3 22 14 25 24
4 10 11 19 16 19 11 0 11 0 -2 -39 -10 -29 -29 -43 -29 -22 0 5 -9 7 -20 4
-13 -3 -22 1 -26 11 -5 12 -10 14 -19 6 -9 -8 -15 -8 -20 0 -3 6 -11 7 -17 4
-7 -4 -9 6 -6 30 2 20 0 36 -4 36 -4 0 -8 -11 -8 -25 0 -32 -25 -43 -49 -21
-12 11 -20 13 -28 5 -8 -8 -17 -8 -31 0 -11 6 -28 8 -37 5 -34 -13 -49 57 -17
75 9 6 18 11 18 11 1 0 8 -7 15 -16z m-344 -49 c2 -37 1 -39 -13 -21 -12 17
-14 18 -14 3 0 -28 -18 -19 -25 13 -8 37 1 52 28 48 17 -2 22 -11 24 -43z
m-83 20 c-4 -8 -1 -15 6 -15 10 0 10 -3 0 -15 -10 -12 -9 -15 4 -15 10 0 14
-4 11 -10 -12 -19 -45 -11 -45 11 0 11 -5 17 -10 14 -6 -4 -9 -14 -8 -22 6
-31 -22 -24 -37 9 l-15 33 4 -37 c5 -40 -1 -47 -23 -25 -10 10 -11 9 -6 -4 9
-24 -58 -42 -73 -20 -9 14 -11 13 -11 -5 -1 -18 -29 -42 -36 -32 -1 2 -7 18
-15 36 -16 42 -1 64 30 44 26 -16 28 -15 26 5 0 10 8 19 19 21 17 4 18 2 6
-12 -10 -12 -10 -16 -1 -16 7 0 10 -7 6 -15 -3 -9 0 -15 8 -15 21 0 25 11 14
36 -13 29 -4 42 17 24 12 -10 15 -10 15 3 0 25 28 28 45 4 l15 -21 0 25 c0 20
5 25 30 27 23 2 28 -1 24 -13z m740 -69 c-3 -13 -1 -27 5 -30 13 -8 15 -26 3
-26 -5 0 -16 6 -26 13 -15 11 -16 17 -5 40 15 33 32 36 23 3z m-481 -7 c4 -15
11 -20 21 -16 9 4 16 2 16 -2 0 -5 -7 -11 -15 -15 -11 -4 -14 -13 -9 -33 7
-26 6 -27 -10 -14 -13 11 -20 11 -28 3 -18 -18 -27 -14 -21 9 4 15 0 27 -12
35 -18 13 -18 14 2 14 13 0 24 8 28 20 8 26 21 25 28 -1z m-187 -115 c4 -15
12 -23 19 -20 20 7 26 -6 9 -19 -13 -9 -14 -16 -6 -32 14 -26 3 -38 -14 -15
-10 14 -15 15 -25 5 -20 -20 -31 -15 -24 8 5 14 1 25 -12 34 -18 14 -16 16 10
19 6 0 13 11 15 24 4 30 20 28 28 -4z m378 -14 c20 -1 20 -1 3 -14 -13 -10
-16 -21 -11 -42 6 -28 6 -28 -12 -12 -17 17 -19 17 -37 0 -19 -16 -20 -16 -13
10 4 20 2 30 -11 37 -17 10 -16 11 4 17 11 3 24 16 28 27 l6 22 11 -22 c6 -13
20 -23 32 -23z m-168 -49 c27 -55 31 -59 57 -54 54 11 85 -46 51 -95 -19 -27
-34 -28 -34 -3 0 23 -19 32 -42 20 -12 -6 -17 -21 -16 -49 0 -45 4 -47 30 -23
17 16 24 9 19 -19 -2 -14 6 -8 62 48 31 31 61 54 67 52 6 -2 22 -29 35 -61 24
-60 41 -87 56 -87 5 0 9 7 9 15 0 8 9 15 20 15 29 0 24 16 -15 47 -19 15 -35
33 -35 39 0 19 48 57 62 48 17 -10 118 -96 192 -162 61 -55 81 -62 52 -16 -24
35 -14 40 31 16 44 -23 45 -36 11 -119 l-22 -53 -50 0 c-35 0 -66 -8 -98 -25
-50 -26 -83 -32 -93 -15 -3 6 0 10 7 10 7 0 36 11 63 25 l50 25 -40 -2 c-22
-1 -51 -9 -65 -18 -16 -11 -53 -19 -100 -22 -51 -3 -89 -12 -120 -28 -36 -18
-70 -25 -163 -31 -76 -4 -124 -12 -135 -21 -56 -46 -146 -62 -233 -42 -35 8
-92 18 -126 21 -35 3 -68 11 -74 19 -17 21 35 18 125 -6 92 -26 148 -27 206
-5 25 9 68 25 95 36 32 12 78 19 130 19 46 1 97 7 120 16 22 9 57 20 78 26 20
6 37 14 37 19 0 15 -82 -2 -134 -27 -42 -20 -65 -24 -147 -24 -82 0 -105 -4
-151 -25 -29 -14 -61 -25 -70 -25 -10 0 -18 -4 -18 -9 0 -13 -99 0 -159 20
-30 11 -71 19 -93 19 -21 0 -38 5 -38 10 0 17 56 11 121 -11 77 -27 164 -22
229 11 25 13 72 26 105 30 l60 7 -67 2 c-53 1 -79 -4 -122 -24 -59 -27 -151
-34 -187 -14 -11 5 -51 15 -90 22 l-69 12 -30 63 c-16 34 -27 62 -25 62 2 0
24 -13 48 -30 58 -39 64 -38 31 5 l-26 35 24 19 c13 10 48 39 78 64 l55 46 10
-25 10 -24 45 39 c25 22 50 40 55 41 6 0 18 -32 28 -72 10 -40 20 -74 22 -76
3 -3 11 1 19 7 11 9 20 10 35 2 11 -6 22 -11 25 -11 12 0 -27 86 -46 102 -12
10 -18 25 -14 33 7 19 36 31 45 19 3 -5 29 -26 58 -47 40 -30 50 -33 46 -18
-6 23 14 38 30 22 18 -18 30 -13 24 11 -4 12 -2 27 3 33 7 8 4 18 -9 29 -16
14 -23 15 -40 6 -12 -6 -20 -16 -19 -23 7 -30 -19 -18 -35 16 -18 35 -18 39
-2 63 14 22 23 25 49 21 31 -5 33 -3 58 54 15 32 31 59 36 59 5 0 22 -27 38
-59z m560 -488 c-16 -13 -40 -23 -59 -23 -39 -1 -138 -33 -185 -60 -18 -11
-51 -21 -73 -22 -27 -1 -39 -6 -39 -16 0 -10 -7 -13 -22 -9 -35 10 -115 -12
-191 -53 -81 -44 -104 -50 -199 -57 -50 -4 -79 -1 -110 12 -23 9 -72 19 -108
22 -53 4 -68 10 -83 29 l-18 24 49 0 c27 0 68 -6 90 -14 125 -44 189 -39 317
24 54 27 99 41 140 45 86 9 185 34 223 56 18 10 66 23 107 28 42 5 86 16 98
24 28 18 57 25 76 18 10 -3 7 -11 -13 -28z m-246 5 c-14 -6 -41 -19 -60 -28
-54 -26 -99 -38 -165 -45 -91 -8 -112 -14 -204 -57 -102 -49 -168 -53 -275
-20 -37 12 -87 22 -110 22 -38 0 -66 13 -66 31 0 11 77 -1 155 -23 90 -26 158
-20 255 21 59 26 98 35 185 42 80 8 124 17 160 34 55 27 76 32 120 33 l30 1
-25 -11z m230 -47 c0 -5 -16 -25 -34 -46 -36 -39 -119 -75 -160 -70 -93 11
-120 18 -101 26 11 4 34 8 51 8 17 1 53 13 80 27 27 14 74 33 104 44 30 10 56
18 58 19 1 1 2 -3 2 -8z m-243 -126 c50 -8 105 -13 122 -11 27 3 29 1 20 -16
-7 -13 -16 -17 -30 -13 -36 12 -153 12 -190 1 -19 -6 -65 -30 -101 -54 -114
-74 -255 -100 -363 -68 -27 9 -77 18 -110 22 -48 5 -64 12 -82 33 -12 14 -22
29 -23 32 0 7 125 -8 164 -20 103 -33 225 -16 327 45 116 70 127 72 266 49z
m103 -72 c0 -20 -210 -208 -255 -229 -103 -48 -322 -33 -412 28 -44 31 -93 73
-93 81 0 3 33 -4 73 -16 56 -16 100 -21 197 -21 141 -1 168 7 275 78 88 59
146 86 183 86 17 0 32 -3 32 -7z m-405 -353 c-3 -5 -13 -10 -21 -10 -8 0 -14
5 -14 10 0 6 9 10 21 10 11 0 17 -4 14 -10z"/>
<path d="M685 1691 c-3 -6 1 -11 9 -11 9 0 16 -4 16 -10 0 -5 -7 -10 -15 -10
-8 0 -15 -4 -15 -10 0 -5 9 -10 21 -10 16 0 20 5 17 27 -3 28 -22 41 -33 24z"/>
<path d="M1136 1715 c-9 -24 -7 -45 3 -45 5 0 13 9 16 21 8 26 -9 48 -19 24z"/>
<path d="M1210 1693 c0 -13 6 -23 14 -23 8 0 16 -6 19 -12 2 -7 7 -11 10 -8 3
3 -6 19 -19 35 -23 28 -24 29 -24 8z"/>
<path d="M1380 1670 c0 -5 7 -10 16 -10 8 0 12 5 9 10 -3 6 -10 10 -16 10 -5
0 -9 -4 -9 -10z"/>
<path d="M1417 1643 c-4 -3 -7 -13 -7 -22 1 -13 3 -13 11 2 11 19 8 33 -4 20z"/>
<path d="M483 1633 c-21 -8 -15 -22 7 -16 11 3 20 9 20 14 0 10 -8 10 -27 2z"/>
<path d="M950 1600 c0 -5 5 -10 10 -10 6 0 10 5 10 10 0 6 -4 10 -10 10 -5 0
-10 -4 -10 -10z"/>
<path d="M1218 1594 c-5 -4 -8 -16 -8 -28 0 -14 3 -17 11 -9 6 6 9 19 7 28 -1
9 -6 13 -10 9z"/>
<path d="M805 1590 c-3 -5 -1 -10 4 -10 6 0 11 5 11 10 0 6 -2 10 -4 10 -3 0
-8 -4 -11 -10z"/>
<path d="M514 1504 c3 -9 6 -20 6 -25 0 -6 4 -8 9 -5 12 8 2 46 -11 46 -6 0
-7 -7 -4 -16z"/>
<path d="M1154 1087 c-27 -27 -54 -88 -54 -121 0 -5 16 10 36 33 28 32 39 39
45 29 10 -14 10 -13 14 55 1 20 -1 37 -4 36 -3 0 -20 -15 -37 -32z"/>
<path d="M945 1070 c-11 -5 -15 -9 -10 -10 6 0 21 -9 35 -19 18 -14 21 -23 14
-33 -6 -7 -14 -22 -18 -33 -4 -11 20 7 53 40 34 33 61 61 61 62 0 2 -11 3 -25
3 -14 0 -25 -6 -25 -12 0 -7 -4 -19 -9 -27 -7 -12 -14 -9 -33 12 -18 19 -28
23 -43 17z"/>
</g>
</svg>
